<?xml version="1.0" standalone="no"?>
<!DOCTYPE svg PUBLIC "-//W3C//DTD SVG 20010904//EN"
 "http://www.w3.org/TR/2001/REC-SVG-20010904/DTD/svg10.dtd">
<svg version="1.0" xmlns="http://www.w3.org/2000/svg"
 width="1280.000000pt" height="640.000000pt" viewBox="0 0 1280.000000 640.000000"
 preserveAspectRatio="xMidYMid meet">
<g transform="translate(0.000000,640.000000) scale(0.100000,-0.100000)"
fill="#000000" stroke="none">
<path d="M6220 6234 c-52 -13 -1463 -345 -3135 -738 -1672 -393 -3048 -718
-3057 -721 -10 -4 -18 -13 -18 -20 0 -8 8 -16 18 -19 9 -3 265 -44 567 -90
303 -47 946 -147 1430 -222 484 -75 914 -141 955 -147 97 -15 100 -30 17 -79
-202 -117 -452 -340 -629 -559 -416 -516 -700 -1274 -848 -2258 -23 -155 -25
-201 -7 -202 40 -3 275 3 417 11 750 45 1409 146 2155 330 354 87 524 134
1180 325 627 182 760 219 1045 290 385 96 746 164 1080 204 355 42 419 46 865
46 378 0 453 -3 535 -18 108 -20 381 -90 545 -139 l110 -34 3 -44 c2 -25 1
-59 -3 -77 -6 -32 -8 -33 -53 -33 -87 0 -191 -89 -233 -199 -31 -82 -23 -187
19 -274 40 -81 58 -96 121 -104 28 -3 54 -10 57 -15 3 -5 -92 -234 -211 -509
-119 -275 -215 -508 -213 -517 2 -9 35 -41 73 -70 246 -184 566 -246 869 -167
100 26 227 83 295 132 59 44 151 136 151 153 0 8 -81 218 -180 465 -99 247
-180 455 -180 462 0 9 16 13 50 13 64 0 97 17 149 76 62 70 84 139 79 249 -3
76 -8 98 -33 143 -38 71 -76 102 -123 102 -51 0 -82 10 -82 26 0 22 13 23 75
4 106 -33 397 -98 514 -115 117 -18 184 -14 232 11 50 25 50 46 4 239 -170
711 -425 1333 -738 1805 -39 58 -84 122 -100 143 -27 35 -68 151 -71 201 -1
13 10 22 34 31 19 6 664 196 1434 421 848 248 1401 414 1404 423 3 7 -1 16 -7
21 -7 4 -101 22 -209 39 -109 18 -510 84 -892 147 -382 63 -816 135 -965 159
-148 24 -504 83 -790 130 -286 47 -684 113 -885 146 -201 33 -527 86 -725 119
-198 33 -594 98 -880 145 -445 73 -1012 166 -1095 179 -14 2 -68 -7 -120 -20z"/>
</g>
</svg>
